HIERARCHY
ROOT Hips
{
  OFFSET -33.9132 29.2015 117.021
  CHANNELS 6 Xposition Yposition Zposition Zrotation Xrotation Yrotation
  JOINT LeftUpLeg
  {
    OFFSET 8.64259 1.95398 -2.38835
    CHANNELS 3 Zrotation Xrotation Yrotation
    JOINT LeftLeg
    {
      OFFSET 43.7702 0 0
      CHANNELS 3 Zrotation Xrotation Yrotation
      JOINT LeftFoot
      {
        OFFSET 40.6238 0 0
        CHANNELS 3 Zrotation Xrotation Yrotation
        JOINT LeftToeBase
        {
          OFFSET 12.7242 0 0
          CHANNELS 3 Zrotation Xrotation Yrotation
          End Site
          {
            OFFSET 0 0 0
          }
        }
      }
    }
  }
  JOINT RightUpLeg
  {
    OFFSET -8.2249 1.95398 -2.59336
    CHANNELS 3 Zrotation Xrotation Yrotation
    JOINT RightLeg
    {
      OFFSET 43.5653 0 0
      CHANNELS 3 Zrotation Xrotation Yrotation
      JOINT RightFoot
      {
        OFFSET 40.6238 0 0
        CHANNELS 3 Zrotation Xrotation Yrotation
        JOINT RightToeBase
        {
          OFFSET 12.7242 0 0
          CHANNELS 3 Zrotation Xrotation Yrotation
          End Site
          {
            OFFSET 0 0 0
          }
        }
      }
    }
  }
  JOINT Spine
  {
    OFFSET 0.165834 0.87714 6.61349
    CHANNELS 3 Zrotation Xrotation Yrotation
    JOINT Spine1
    {
      OFFSET 7.38963 1.71661e-005 0
      CHANNELS 3 Zrotation Xrotation Yrotation
      JOINT Spine2
      {
        OFFSET 11.9445 1.14441e-005 0
        CHANNELS 3 Zrotation Xrotation Yrotation
        JOINT Spine3
        {
          OFFSET 14.7254 4.19617e-005 0
          CHANNELS 3 Zrotation Xrotation Yrotation
          JOINT Spine4
          {
            OFFSET 10.9679 0 0
            CHANNELS 3 Zrotation Xrotation Yrotation
            JOINT RightShoulder
            {
              OFFSET 2.46616 -1.6653 3.69651
              CHANNELS 3 Zrotation Xrotation Yrotation
              JOINT RightArm
              {
                OFFSET 13.0012 0 0
                CHANNELS 3 Zrotation Xrotation Yrotation
                JOINT RightForeArm
                {
                  OFFSET 28.7848 1.62311e-005 0
                  CHANNELS 3 Zrotation Xrotation Yrotation
                  JOINT RightHand
                  {
                    OFFSET 26.5688 1.62095e-005 0
                    CHANNELS 3 Zrotation Xrotation Yrotation
                    End Site
                    {
                      OFFSET 0 0 0
                    }
                  }
                }
              }
            }
            JOINT LeftShoulder
            {
              OFFSET 2.38034 -1.29275 -3.7523
              CHANNELS 3 Zrotation Xrotation Yrotation
              JOINT LeftArm
              {
                OFFSET 16.3182 6.07031e-005 0
                CHANNELS 3 Zrotation Xrotation Yrotation
                JOINT LeftForeArm
                {
                  OFFSET 27.0901 0 0
                  CHANNELS 3 Zrotation Xrotation Yrotation
                  JOINT LeftHand
                  {
                    OFFSET 24.5451 1.51738e-005 0
                    CHANNELS 3 Zrotation Xrotation Yrotation
                    End Site
                    {
                      OFFSET 0 0 0
                    }
                  }
                }
              }
            }
            JOINT Neck
            {
              OFFSET 5.0226 -0.0266342 0
              CHANNELS 3 Zrotation Xrotation Yrotation
              JOINT Head
              {
                OFFSET 6.69364 2.86102e-005 0
                CHANNELS 3 Zrotation Xrotation Yrotation
                End Site
                {
                  OFFSET 0 0 0
                }
              }
            }
          }
        }
      }
    }
  }
}
MOTION
Frames:	12
Frame Time:	0.0416667
103.603 26.6636 114.203 -24.1557 -13.7629 -99.6863 -124.277 58.1188 90.5628 -109.653 3.33325 2.76922 66.3297 1.89171 5.39035 -1.37255 -17.8282 2.58544 137.929 14.795 58.7828 -42.6236 -21.8798 13.59 46.8505 7.56904 5.23772 31.6909 -2.07769 3.51872 -1.41705 8.92423 -87.4201 9.03591 -1.67506 5.22488 -2.64473 -1.4438 5.29325 -25.1227 -3.16643 4.48235 -5.11003 -3.16645 4.48234 94.8592 -9.95654 -104.011 25.7846 23.2829 55.376 -56.8813 43.7494 -119.965 -74.6754 5.42873 -12.3188 -87.7194 -33.0221 78.5032 0.795565 -29.3888 -38.7122 40.4734 28.7813 -63.0934 59.4772 -18.118 -28.8537 36.8915 -1.46805 -4.34615 1.69397 0.466865 -3.43883 
102.839 25.9846 113.781 -24.9728 -12.9828 -101.363 -127.653 55.335 94.5535 -108.295 6.62417 1.86439 65.9096 2.00487 5.56251 -1.80824 -18.34 2.8596 137.137 14.3644 57.1791 -42.8958 -11.2087 13.2585 48.3441 6.35631 4.32864 30.3126 -1.38199 2.97263 -1.51586 8.76882 -87.72 9.35798 -1.99862 4.66591 -2.32007 -1.79156 4.7491 -24.8186 -3.30759 3.85134 -4.8059 -3.30761 3.85134 95.4731 -8.91884 -102.722 24.8238 17.1002 48.2648 -59.8589 45.5741 -118.167 -69.024 3.93512 -10.9486 -85.0241 -21.7689 80.9159 -5.72448 -42.246 -42.8437 39.0185 33.6091 -59.5026 52.804 -16.8653 -30.8094 35.2669 1.0708 0.647599 2.89498 0.578702 -3.02294 
102.416 25.4488 113.22 -24.3118 -11.0594 -100.584 -125.538 55.9154 96.0233 -107.601 5.38724 1.42774 65.1555 1.82887 5.80849 -2.12788 -17.6758 1.83434 138.731 13.7377 58.4665 -43.1308 -10.465 13.2536 49.9 5.68252 3.7088 28.5857 -0.801336 3.61611 -1.45396 8.44172 -88.3465 10.0104 -2.14585 3.4585 -1.66369 -1.99163 3.54946 -24.1889 -3.08572 2.6543 -4.17625 -3.08571 2.65432 95.6801 -8.54679 -102.282 24.3478 13.6984 35.7256 -61.555 42.6021 -115.627 -61.6913 5.16695 -13.9027 -81.9674 -5.14624 83.3917 -16.5761 -51.3898 -57.4505 35.3616 40.55 -50.8964 42.5028 -15.8699 -36.6355 32.5895 4.77329 5.02315 3.83811 2.22969 -2.96615 
102.488 25.6408 112.518 -19.0771 -7.80043 -97.8181 -117.809 60.3891 91.8365 -107.482 6.16241 0.970385 64.6119 1.88414 6.07747 -0.819989 -17.7575 2.92636 142.076 16.7934 64.3706 -46.1722 -6.62254 13.4339 53.139 3.84412 2.2045 28.7786 -1.11591 4.58275 -1.13734 7.82802 -89.0676 11.2328 -1.82976 2.03771 -0.438611 -1.73834 2.11621 -22.9773 -2.3575 1.3936 -2.96466 -2.35752 1.39358 95.8177 -8.5531 -101.86 23.8392 11.2179 27.039 -66.5181 41.6885 -111.428 -56.4721 5.00177 -14.5511 -80.4921 4.20478 84.9765 -25.2101 -52.8244 -72.2263 31.5536 48.494 -39.9386 31.7215 -14.3187 -44.3329 32.5008 7.16464 8.37285 3.47813 3.11727 -3.16157 
102.869 26.315 111.849 -12.5978 -3.50336 -93.4154 -103.126 67.3623 81.2377 -107.765 3.13856 0.87599 63.6062 1.24293 4.58605 -1.76953 -18.2057 2.72736 145.884 19.6332 73.4575 -48.7073 0.687738 14.0016 61.0666 -1.31016 -0.124678 29.6794 -1.46128 4.48671 -0.637131 7.18806 -89.7851 12.501 -1.16344 0.563463 0.830434 -1.13748 0.61415 -21.7087 -1.279 0.187737 -1.69606 -1.27899 0.18772 95.778 -9.50236 -101.528 23.0626 9.33686 22.7279 -71.862 42.8119 -107.783 -51.5325 4.74712 -15.0997 -79.6806 8.86165 87.2491 -29.9627 -50.2147 -81.529 29.1834 52.0696 -34.4658 31.3894 -14.9533 -46.4494 33.2097 8.86478 10.168 2.5379 3.9127 -3.81899 
102.486 26.5001 112.079 -11.9243 -1.69981 -95.0471 -101.548 64.7358 81.3349 -106.628 2.47623 -0.0871177 63.8368 1.52739 4.12152 -2.94642 -18.1028 1.71566 145.774 21.5835 73.8439 -50.6939 5.0092 13.8457 68.2161 -6.4257 -1.26653 30.078 -1.46551 3.78443 -0.609615 7.16726 -89.8138 12.5422 -1.12227 0.502081 0.871655 -1.09907 0.551004 -21.6673 -1.22129 0.141526 -1.65464 -1.2213 0.141534 95.3403 -10.6947 -102.253 22.6237 8.94837 21.0311 -75.3572 44.741 -105.667 -47.6162 4.90225 -16.3928 -79.3813 10.5942 88.0092 -30.4361 -50.5332 -81.1695 26.4765 49.5985 -32.7593 28.025 -12.9629 -45.3826 33.5567 9.40341 10.3292 2.65293 4.33479 -3.52986 
101.852 26.0425 112.204 -11.4568 -0.297851 -96.1783 -101.321 62.5077 83.0492 -105.574 2.61936 -0.975271 64.0188 1.78578 4.07185 -1.86418 -18.6154 3.13213 145.821 22.0887 73.9832 -50.8128 9.23899 14.581 70.5679 -8.03729 -1.91239 29.7311 -1.34829 3.88318 -0.657791 7.19869 -89.8203 12.4796 -1.2213 0.499445 0.809134 -1.19814 0.55272 -21.7306 -1.31495 0.109246 -1.71791 -1.31494 0.109243 95.1919 -11.5036 -102.299 21.7707 7.90439 20.6206 -78.6295 46.8817 -103.634 -47.3825 4.99505 -16.685 -79.0805 10.9846 89.542 -30.8839 -51.3794 -79.5677 24.9029 47.3297 -32.5312 29.6655 -13.7704 -45.4145 35.9265 9.89613 8.73866 1.99899 5.32938 -2.7138 
100.848 25.0685 112.403 -10.9286 0.778235 -96.8493 -103.023 60.0411 86.6967 -104.23 4.15056 -2.03009 64.2453 1.9595 3.29343 3.96171 -17.3548 6.31144 146.191 21.5435 73.7999 -49.7584 12.2368 15.2978 74.3227 -10.5233 -1.858 29.088 -1.14858 4.18875 -0.827234 7.14582 -89.8866 12.5865 -1.58922 0.41187 0.916362 -1.56955 0.481437 -21.6265 -1.63952 -0.0849033 -1.61391 -1.63951 -0.0849193 94.6707 -11.8438 -103.606 20.2265 6.39964 23.2227 -83.1223 50.4657 -100.687 -46.6874 3.48155 -13.2987 -78.9419 10.7833 90.2504 -34.6233 -50.9909 -76.719 27.1444 46.9604 -36.3217 32.5495 -14.9339 -44.934 37.3823 10.865 8.19875 1.77282 6.34997 -3.27959 
99.7728 24.8804 112.837 -9.22424 2.4378 -97.4639 -107.432 57.4934 91.2805 -101.608 5.99758 -3.51574 61.8698 -0.428976 -1.48558 14.1547 -12.9614 9.45603 147.905 22.0142 74.989 -48.316 15.3102 14.8717 80.7561 -14.9767 -1.19379 29.0922 -0.950991 3.34899 -0.849626 7.0019 -89.9763 12.8733 -1.67556 0.249133 1.20341 -1.66297 0.32265 -21.3403 -1.67295 -0.266096 -1.32767 -1.67295 -0.266107 93.1948 -14.0508 -106.514 19.5157 3.99661 21.0071 -81.2045 48.1356 -101.874 -48.9061 4.67731 -15.5627 -78.9818 10.1808 90.2409 -29.2632 -53.1145 -65.0153 30.0031 44.3416 -42.4942 34.501 -15.7416 -44.6358 38.3596 12.0036 8.69147 1.28181 7.08889 -4.55765 
98.2694 25.8771 114.107 -7.33788 4.06535 -98.9349 -115.871 53.3342 96.3095 -95.702 16.8614 -6.69495 59.4104 -1.85777 -3.65637 20.4665 -9.81201 10.8707 149.861 26.1317 74.7529 -48.0023 15.4062 13.9415 75.7665 -11.1598 -1.35235 26.5627 0.172265 3.15073 -0.71956 6.90857 -90.0235 13.0584 -1.43954 0.130335 1.38819 -1.43243 0.193571 -21.1532 -1.41216 -0.308406 -1.14053 -1.41215 -0.308429 91.8114 -17.0002 -108.522 19.2657 3.17753 22.3549 -81.6011 48.071 -101.565 -50.9618 6.6706 -19.3135 -79.4777 9.76903 87.8447 -22.558 -55.7944 -52.8699 27.557 40.4408 -43.5764 37.9936 -17.2482 -44.3925 38.8101 12.4295 8.68319 1.27592 7.49538 -3.38551 
96.1782 27.6645 116.681 -5.2311 5.15357 -100.464 -120.578 49.0724 95.7837 -88.2286 22.7423 -9.89263 56.7355 -3.30886 -5.18461 22.7868 -9.32928 12.6665 147.797 37.4658 71.745 -54.7697 11.0506 14.6758 62.069 -0.339946 0.892762 23.0552 1.91312 2.41811 -0.318169 7.00444 -90.331 12.8639 -0.790407 -0.569533 1.19309 -0.814709 -0.534189 -21.3421 -0.582707 -0.780725 -1.32941 -0.582704 -0.780754 93.7529 -15.7285 -104.206 18.2247 4.11647 26.2986 -78.2528 52.3987 -104.849 -47.7056 8.21276 -23.8922 -79.9038 8.33241 86.5535 -31.076 -59.2394 -53.5998 33.4408 41.6057 -50.7892 39.88 -18.468 -44.9779 40.7291 13.0641 10.4406 0.0749987 7.15219 -1.60352 
94.0366 29.4591 119.34 -3.38492 6.70291 -100.123 -123.691 47.0274 94.9848 -81.8604 24.566 -12.561 54.3109 -4.58668 -6.67581 25.5956 -8.05307 13.6259 143.094 52.0419 72.3998 -67.5282 -0.0759763 11.8662 59.289 1.71969 0.791419 18.3191 3.55263 3.80504 -0.0177959 7.13591 -90.8354 12.5975 -0.433725 -1.61779 0.92563 -0.504487 -1.59715 -21.6016 0.0724732 -1.67334 -1.58896 0.0724696 -1.67333 94.3603 -14.4449 -103.246 19.2258 6.19331 26.5896 -76.5427 53.0052 -106.358 -47.1666 10.4891 -29.2645 -80.3255 4.57931 86.304 -31.8048 -61.3896 -51.5718 31.2609 38.6478 -51.969 40.5438 -18.6774 -44.8584 41.2083 14.1608 13.2139 0.32075 6.77148 -1.56765 
